<svg id="SvgjsSvg1016" width="288" height="288" xmlns="http://www.w3.org/2000/svg" version="1.1" xmlns:xlink="http://www.w3.org/1999/xlink" xmlns:svgjs="http://svgjs.com/svgjs"><defs id="SvgjsDefs1017"></defs><g id="SvgjsG1018"><svg xmlns="http://www.w3.org/2000/svg" viewBox="0 0 24 24" width="288" height="288"><path d="M20.5,15.1a1,1,0,0,0-1.34.45A8,8,0,1,1,12,4a7.93,7.93,0,0,1,7.16,4.45,1,1,0,0,0,1.8-.9,10,10,0,1,0,0,8.9A1,1,0,0,0,20.5,15.1ZM21,11H11.41l2.3-2.29a1,1,0,1,0-1.42-1.42l-4,4a1,1,0,0,0-.21.33,1,1,0,0,0,0,.76,1,1,0,0,0,.21.33l4,4a1,1,0,0,0,1.42,0,1,1,0,0,0,0-1.42L11.41,13H21a1,1,0,0,0,0-2Z" fill="#ffffff" class="color000 svgShape"></path></svg></g></svg>