<svg id="SvgjsSvg1042" width="288" height="288" xmlns="http://www.w3.org/2000/svg" version="1.1" xmlns:xlink="http://www.w3.org/1999/xlink" xmlns:svgjs="http://svgjs.com/svgjs"><defs id="SvgjsDefs1043"></defs><g id="SvgjsG1044"><svg xmlns="http://www.w3.org/2000/svg" viewBox="0 0 24 24" width="288" height="288"><path d="M9.01 20.5a4.642 4.642 0 0 1-4.191-2.632 5.136 5.136 0 0 1-.48.019C1.946 17.887 0 15.932 0 13.529c0-1.4.685-2.721 1.812-3.538a4.861 4.861 0 0 1-.259-1.563c0-2.717 2.224-4.928 4.956-4.928 1.374 0 2.665.547 3.613 1.516a4.555 4.555 0 0 1 2.886-1.031c1.48 0 2.875.748 3.733 1.978a5.41 5.41 0 0 1 1.815-.306c3.002 0 5.443 2.455 5.443 5.472 0 3.018-2.449 5.472-5.46 5.472a5.33 5.33 0 0 1-.727-.053 4.132 4.132 0 0 1-4.749 1.587A4.634 4.634 0 0 1 9.01 20.5zm-3.881-3.685c.206 0 .396.128.47.328.514 1.41 1.885 2.357 3.411 2.357a3.636 3.636 0 0 0 3.35-2.196.504.504 0 0 1 .666-.259c1.613.729 3.335.094 4.1-1.286a.505.505 0 0 1 .525-.25c.348.062.63.091.89.091 2.459 0 4.46-2.006 4.46-4.472s-1.993-4.472-4.443-4.472c-.652 0-1.274.132-1.8.381a.503.503 0 0 1-.649-.206c-.645-1.139-1.833-1.847-3.1-1.847-.969 0-1.9.396-2.557 1.088a.5.5 0 0 1-.692.032.622.622 0 0 1-.077-.077A4.045 4.045 0 0 0 6.509 4.5c-2.182 0-3.956 1.762-3.956 3.928 0 .538.114 1.075.329 1.554a.501.501 0 0 1-.204.637A3.384 3.384 0 0 0 1 13.529c0 1.852 1.497 3.357 3.338 3.357.291 0 .495-.018.683-.06a.565.565 0 0 1 .108-.011z" fill="#ffffff" class="color000 svgShape"></path></svg></g></svg>