<svg width="256" height="256" viewBox="0 0 256 256" fill="none" xmlns="http://www.w3.org/2000/svg">
<path d="M179.959 108.414V154.683L224.98 131.552L179.959 108.414Z" fill="black"/>
<path d="M187.301 82.0938L231.946 127.968C231.947 113.571 229.117 99.3211 223.625 86.0755C218.133 72.8299 210.094 60.8615 199.989 50.8889C189.885 40.9162 177.923 33.1451 164.823 28.0422C151.723 22.9392 137.755 20.6096 123.757 21.1932C75.1526 23.1742 33.8827 60.4264 25.5407 109.679C23.1606 123.703 23.5414 138.076 26.6604 151.946L68.6342 108.808C70.5839 106.805 73.2277 105.68 75.9843 105.68C78.741 105.68 81.3849 106.805 83.3346 108.808L114.975 141.326L172.609 82.0938C174.558 80.0935 177.2 78.97 179.955 78.97C182.71 78.97 185.352 80.0935 187.301 82.0938ZM91.5086 69.0736C91.5086 65.9733 92.4031 62.9427 94.0791 60.3649C95.755 57.7872 98.1371 55.7781 100.924 54.5916C103.711 53.4052 106.778 53.0948 109.736 53.6996C112.695 54.3045 115.413 55.7974 117.546 57.9896C119.679 60.1818 121.132 62.9748 121.72 66.0155C122.309 69.0562 122.007 72.208 120.852 75.0722C119.698 77.9365 117.743 80.3846 115.235 82.107C112.726 83.8294 109.778 84.7488 106.761 84.7488C102.716 84.7488 98.8362 83.0973 95.9759 80.1576C93.1155 77.2179 91.5086 73.2309 91.5086 69.0736Z" fill="black"/>
<path d="M146.615 173.844L114.975 141.326L54.4536 203.525C65.2098 214.576 78.1936 223.066 92.4899 228.399C106.786 233.731 122.047 235.775 137.195 234.387C152.344 232.999 167.011 228.212 180.164 220.365C193.317 212.517 204.635 201.8 213.319 188.968L179.959 154.683L161.316 173.844C159.366 175.846 156.722 176.971 153.965 176.971C151.209 176.971 148.565 175.846 146.615 173.844Z" fill="black"/>
<path d="M106.593 46.6982C102.527 46.6982 98.5518 47.9642 95.171 50.3362C91.7902 52.7082 89.1551 56.0795 87.5991 60.0239C86.043 63.9683 85.6359 68.3087 86.4291 72.496C87.2224 76.6834 89.1805 80.5298 92.0556 83.5487C94.9308 86.5676 98.5939 88.6235 102.582 89.4564C106.57 90.2894 110.703 89.8619 114.46 88.2281C118.217 86.5942 121.427 83.8274 123.686 80.2775C125.945 76.7277 127.151 72.5541 127.151 68.2847C127.151 62.5596 124.985 57.069 121.13 53.0208C117.274 48.9725 112.045 46.6982 106.593 46.6982ZM106.593 84.1176C103.61 84.1176 100.695 83.189 98.2153 81.4493C95.7356 79.7095 93.8029 77.2368 92.6616 74.3437C91.5203 71.4506 91.2217 68.2672 91.8035 65.1959C92.3853 62.1246 93.8214 59.3035 95.9302 57.0892C98.0391 54.8749 100.726 53.367 103.651 52.7561C106.576 52.1452 109.608 52.4587 112.363 53.6571C115.118 54.8554 117.473 56.8847 119.13 59.4884C120.787 62.0922 121.672 65.1533 121.672 68.2847C121.665 72.4818 120.075 76.5052 117.248 79.473C114.422 82.4408 110.59 84.111 106.593 84.1176Z" fill="black"/>
<path d="M128.174 21C126.776 21 125.378 21 123.973 21.0827C75.438 23.0748 34.2269 60.5378 25.8969 110.07C23.5202 124.173 23.9004 138.626 27.015 152.575L68.9289 109.193C70.8758 107.179 73.5158 106.048 76.2686 106.048C79.0213 106.048 81.6614 107.179 83.6083 109.193L115.203 141.895L172.755 82.3278C174.702 80.3137 177.342 79.1823 180.095 79.1823C182.848 79.1823 185.488 80.3137 187.435 82.3278L232 128.462C232 99.9613 221.061 72.628 201.59 52.4749C182.119 32.3219 155.71 21 128.174 21ZM180.087 73.4497C177.996 73.4449 175.925 73.869 173.993 74.6976C172.062 75.5263 170.308 76.7429 168.834 78.2773L115.195 133.794L87.5218 105.143C86.0437 103.612 84.2886 102.398 82.3571 101.57C80.4256 100.742 78.3553 100.315 76.2646 100.315C74.1738 100.315 72.1035 100.742 70.172 101.57C68.2405 102.398 66.4855 103.612 65.0074 105.143L30.609 140.738C29.4436 130.859 29.6912 120.857 31.3437 111.053C39.2425 64.1171 78.2812 28.6877 124.188 26.8112C125.522 26.7616 126.84 26.7286 128.182 26.7286C151.742 26.7616 174.51 35.5378 192.351 51.4636C210.193 67.3895 221.926 89.4091 225.419 113.525L191.356 78.269C189.878 76.7353 188.121 75.5197 186.187 74.6926C184.253 73.8654 182.18 73.443 180.087 73.4497Z" fill="black"/>
<path d="M153.97 176.931C151.206 176.932 148.555 175.808 146.599 173.805L114.866 141.268L54.1683 203.506C64.9558 214.563 77.9776 223.059 92.3156 228.395C106.654 233.73 121.958 235.776 137.151 234.387C152.344 232.998 167.055 228.208 180.246 220.356C193.437 212.503 204.788 201.779 213.497 188.939L180.04 154.633L161.342 173.805C160.376 174.8 159.227 175.588 157.961 176.125C156.696 176.661 155.34 176.935 153.97 176.931ZM180.04 162.702L206.198 189.515C197.935 200.569 187.535 209.754 175.649 216.496C163.763 223.237 150.648 227.39 137.125 228.693C123.601 229.997 109.961 228.423 97.0586 224.07C84.156 219.718 72.2687 212.68 62.1415 203.399L114.866 149.336L142.668 177.836C144.153 179.358 145.915 180.566 147.855 181.391C149.795 182.215 151.875 182.639 153.974 182.639C156.074 182.639 158.154 182.215 160.094 181.391C162.033 180.566 163.796 179.358 165.281 177.836L180.04 162.702Z" fill="black"/>
<path d="M179.576 107.346V155.659L224.804 131.507L179.576 107.346ZM185.144 116.976L212.35 131.507L185.144 146.029V116.976Z" fill="black"/>
</svg>
