<svg width="256" height="256" viewBox="0 0 256 256" fill="none" xmlns="http://www.w3.org/2000/svg">
<g opacity="0.3">
<path d="M179.959 108.414V154.683L224.98 131.552L179.959 108.414Z" fill="#00193C"/>
<path d="M187.301 82.0937L231.946 127.968C231.947 113.571 229.117 99.321 223.625 86.0754C218.133 72.8298 210.094 60.8614 199.989 50.8888C189.885 40.9162 177.923 33.1451 164.823 28.0421C151.723 22.9391 137.755 20.6095 123.757 21.1932C75.1526 23.1742 33.8827 60.4263 25.5407 109.679C23.1606 123.703 23.5414 138.075 26.6604 151.946L68.6342 108.808C70.5839 106.805 73.2277 105.68 75.9843 105.68C78.741 105.68 81.3849 106.805 83.3346 108.808L114.975 141.326L172.609 82.0937C174.558 80.0934 177.2 78.97 179.955 78.97C182.71 78.97 185.352 80.0934 187.301 82.0937ZM91.5086 69.0735C91.5086 65.9733 92.4031 62.9426 94.0791 60.3649C95.755 57.7871 98.1371 55.778 100.924 54.5916C103.711 53.4052 106.778 53.0947 109.736 53.6996C112.695 54.3044 115.413 55.7973 117.546 57.9895C119.679 60.1817 121.132 62.9748 121.72 66.0155C122.309 69.0562 122.007 72.2079 120.852 75.0722C119.698 77.9364 117.743 80.3845 115.235 82.107C112.726 83.8294 109.778 84.7487 106.761 84.7487C102.716 84.7487 98.8362 83.0972 95.9759 80.1575C93.1155 77.2179 91.5086 73.2308 91.5086 69.0735Z" fill="#00193C"/>
<g filter="url(#filter0_d_20_28)">
<path d="M146.615 173.844L114.975 141.326L54.4536 203.525C65.2097 214.576 78.1936 223.066 92.4898 228.399C106.786 233.731 122.046 235.775 137.195 234.387C152.344 232.999 167.011 228.212 180.164 220.365C193.317 212.517 204.635 201.8 213.319 188.968L179.959 154.683L161.316 173.844C159.366 175.846 156.722 176.971 153.965 176.971C151.209 176.971 148.565 175.846 146.615 173.844Z" fill="#00193C"/>
</g>
</g>
<path d="M106.593 46.6982C102.527 46.6982 98.5519 47.9643 95.1711 50.3362C91.7902 52.7082 89.1552 56.0795 87.5992 60.0239C86.0431 63.9684 85.6359 68.3087 86.4292 72.4961C87.2225 76.6834 89.1805 80.5298 92.0557 83.5487C94.9309 86.5676 98.594 88.6235 102.582 89.4565C106.57 90.2894 110.704 89.8619 114.46 88.2281C118.217 86.5942 121.428 83.8274 123.687 80.2776C125.946 76.7277 127.151 72.5541 127.151 68.2847C127.151 62.5596 124.985 57.069 121.13 53.0208C117.274 48.9725 112.045 46.6982 106.593 46.6982V46.6982ZM106.593 84.1176C103.61 84.1176 100.695 83.189 98.2154 81.4493C95.7357 79.7096 93.803 77.2368 92.6617 74.3437C91.5204 71.4506 91.2218 68.2672 91.8036 65.1959C92.3854 62.1246 93.8215 59.3035 95.9303 57.0892C98.0391 54.8749 100.726 53.367 103.651 52.7561C106.576 52.1452 109.608 52.4587 112.363 53.6571C115.119 54.8554 117.474 56.8848 119.13 59.4885C120.787 62.0922 121.672 65.1533 121.672 68.2847C121.665 72.4819 120.075 76.5052 117.248 79.473C114.422 82.4408 110.59 84.111 106.593 84.1176V84.1176Z" fill="#00193C"/>
<path d="M128.174 21C126.776 21 125.379 21 123.973 21.0827C75.4381 23.0748 34.227 60.5378 25.8969 110.07C23.5202 124.173 23.9004 138.626 27.015 152.575L68.9289 109.193C70.8759 107.179 73.5159 106.048 76.2686 106.048C79.0213 106.048 81.6614 107.179 83.6084 109.193L115.203 141.895L172.755 82.3278C174.702 80.3137 177.342 79.1823 180.095 79.1823C182.848 79.1823 185.488 80.3137 187.435 82.3278L232 128.462C232 99.9614 221.061 72.628 201.59 52.4749C182.119 32.3219 155.71 21 128.174 21ZM180.087 73.4498C177.996 73.4449 175.925 73.869 173.993 74.6976C172.062 75.5263 170.308 76.7429 168.834 78.2773L115.195 133.794L87.5218 105.143C86.0437 103.612 84.2887 102.398 82.3571 101.57C80.4256 100.742 78.3553 100.315 76.2646 100.315C74.1738 100.315 72.1036 100.742 70.172 101.57C68.2405 102.398 66.4856 103.612 65.0074 105.143L30.609 140.738C29.4437 130.859 29.6912 120.857 31.3437 111.053C39.2425 64.1171 78.2812 28.6877 124.188 26.8112C125.522 26.7616 126.84 26.7286 128.182 26.7286C151.742 26.7616 174.51 35.5378 192.351 51.4636C210.193 67.3895 221.926 89.4091 225.419 113.525L191.356 78.269C189.878 76.7353 188.122 75.5197 186.187 74.6926C184.253 73.8654 182.18 73.443 180.087 73.4498V73.4498Z" fill="#00193C"/>
<path d="M153.97 176.931C151.206 176.932 148.555 175.808 146.599 173.806L114.866 141.268L54.1682 203.506C64.9557 214.563 77.9775 223.059 92.3155 228.395C106.653 233.73 121.958 235.776 137.151 234.387C152.344 232.998 167.055 228.208 180.246 220.356C193.437 212.503 204.788 201.779 213.497 188.939L180.04 154.633L161.342 173.806C160.376 174.8 159.227 175.588 157.961 176.125C156.696 176.661 155.34 176.935 153.97 176.931V176.931ZM180.04 162.702L206.198 189.515C197.935 200.569 187.534 209.754 175.649 216.496C163.763 223.237 150.648 227.39 137.125 228.693C123.601 229.997 109.961 228.423 97.0585 224.07C84.1559 219.718 72.2687 212.68 62.1414 203.399L114.866 149.336L142.668 177.836C144.153 179.358 145.915 180.566 147.855 181.391C149.795 182.215 151.875 182.639 153.974 182.639C156.074 182.639 158.153 182.215 160.093 181.391C162.033 180.566 163.796 179.358 165.281 177.836L180.04 162.702Z" fill="#00193C"/>
<path d="M179.576 107.346V155.659L224.805 131.507L179.576 107.346ZM185.144 116.976L212.35 131.507L185.144 146.029V116.976Z" fill="#00193C"/>
<defs>
<filter id="filter0_d_20_28" x="50.4536" y="141.326" width="166.865" height="101.483" filterUnits="userSpaceOnUse" color-interpolation-filters="sRGB">
<feFlood flood-opacity="0" result="BackgroundImageFix"/>
<feColorMatrix in="SourceAlpha" type="matrix" values="0 0 0 0 0 0 0 0 0 0 0 0 0 0 0 0 0 0 127 0" result="hardAlpha"/>
<feOffset dy="4"/>
<feGaussianBlur stdDeviation="2"/>
<feComposite in2="hardAlpha" operator="out"/>
<feColorMatrix type="matrix" values="0 0 0 0 0 0 0 0 0 0 0 0 0 0 0 0 0 0 0.25 0"/>
<feBlend mode="normal" in2="BackgroundImageFix" result="effect1_dropShadow_20_28"/>
<feBlend mode="normal" in="SourceGraphic" in2="effect1_dropShadow_20_28" result="shape"/>
</filter>
</defs>
</svg>
