<svg id="Capa_1" data-name="Capa 1" xmlns="http://www.w3.org/2000/svg" viewBox="0 0 340 340"><defs><style>.cls-1{fill:none;}.cls-2{opacity:0.7;}.cls-3{fill:#8d80ff;}.cls-4{fill:#00aeff;}.cls-5{fill:#00e97c;}.cls-6{fill:#00183d;}</style></defs><rect class="cls-1" width="340" height="340" rx="15"/><g class="cls-2"><polygon class="cls-3" points="226.93 149.17 226.93 198.47 276.23 173.82 226.93 149.17"/><path class="cls-4" d="M235,121.12,283.86,170A113.86,113.86,0,0,0,165.38,56.23C112.16,58.33,67,98,57.83,150.51a113.49,113.49,0,0,0,1.22,45l46-46a11.38,11.38,0,0,1,16.1,0l34.65,34.64,63.11-63.11A11.38,11.38,0,0,1,235,121.12ZM130.07,107.24a16.7,16.7,0,1,1,16.7,16.7A16.7,16.7,0,0,1,130.07,107.24Z"/><path class="cls-5" d="M190.41,218.88l-34.64-34.65L89.49,250.51a113.83,113.83,0,0,0,174-15.51l-36.53-36.53-20.41,20.41A11.39,11.39,0,0,1,190.41,218.88Z"/></g><path class="cls-6" d="M146.77,84.47a22.78,22.78,0,1,0,22.77,22.77A22.77,22.77,0,0,0,146.77,84.47Zm0,39.47a16.7,16.7,0,1,1,16.7-16.7A16.72,16.72,0,0,1,146.77,123.94Z"/><path class="cls-6" d="M170,56.14h0c-1.53,0-3.06,0-4.61.09C112.16,58.33,67,98,57.83,150.51a113.49,113.49,0,0,0,1.22,45l46-46a11.37,11.37,0,0,1,16.1,0l34.65,34.64,63.11-63.11a11.4,11.4,0,0,1,16.1,0L283.86,170A113.86,113.86,0,0,0,170,56.14Zm56.93,55.57a17.32,17.32,0,0,0-12.34,5.12l-58.82,58.82-30.36-30.36a17.47,17.47,0,0,0-24.69,0L63,183a107.09,107.09,0,0,1,.8-31.46c8.66-49.73,51.48-87.26,101.81-89.25,1.47-.06,2.92-.09,4.37-.09v0a108,108,0,0,1,106.63,92l-37.35-37.35A17.36,17.36,0,0,0,226.93,111.71Z"/><path class="cls-6" d="M198.47,222.21a11.38,11.38,0,0,1-8.06-3.33l-34.64-34.65L89.49,250.51a113.83,113.83,0,0,0,174-15.51l-36.53-36.53-20.41,20.41A11.37,11.37,0,0,1,198.47,222.21Zm28.46-15.16,28.56,28.56a107.76,107.76,0,0,1-157.3,14.78l57.58-57.57,30.35,30.35a17.44,17.44,0,0,0,24.69,0Z"/><path class="cls-6" d="M226.93,149.17v49.3l49.3-24.65ZM233,159l29.65,14.83L233,188.64Z"/></svg>